<svg fill="#b4ccca" xmlns="http://www.w3.org/2000/svg" width="24" height="24"><path d="M18.782 6.26A16.32 16.32 0 0 0 14.692 5c-.194.343-.367.697-.52 1.06a15.63 15.63 0 0 0-4.53 0c-.14-.33-.35-.75-.52-1.06a16.07 16.07 0 0 0-4.11 1.26 16.47 16.47 0 0 0-2.92 11.23 16.669 16.669 0 0 0 5 2.51 11.27 11.27 0 0 0 1.07-1.73 10.005 10.005 0 0 1-1.68-.81l.41-.32a11.7 11.7 0 0 0 10 0c.14.11.27.22.42.32-.542.32-1.11.591-1.7.81.314.608.682 1.188 1.1 1.73a16.67 16.67 0 0 0 5-2.51 16.48 16.48 0 0 0-2.93-11.23zm-10.16 9a1.89 1.89 0 0 1-1.78-2 1.88 1.88 0 0 1 1.78-2 1.87 1.87 0 0 1 1.78 2 1.89 1.89 0 0 1-1.78 1.96v.04zm6.57 0a1.9 1.9 0 0 1-1.78-2 1.889 1.889 0 0 1 1.78-2 1.87 1.87 0 0 1 1.78 2 1.88 1.88 0 0 1-1.78 1.96v.04z"/></svg>