<svg width="100" height="50" viewBox="0 0 109 35" fill="none" xmlns="http://www.w3.org/2000/svg"><path d="M21 33H33L21 21V33Z" fill="white"></path><path d="M33 9.53674e-07L26 3.41715e-07L33 7L33 9.53674e-07Z" fill="#00C6A2"></path><path fill-rule="evenodd" clip-rule="evenodd" d="M21.5 21C21.3323 21 21.1656 20.9957 21 20.9871V13.4755L29.1681 5.89086C30.3199 7.46277 31 9.40196 31 11.5C31 16.7467 26.7467 21 21.5 21ZM27.0347 3.77793L21 9.38161V2.01293C21.1656 2.00435 21.3323 2 21.5 2C23.5651 2 25.4762 2.6589 27.0347 3.77793Z" fill="white"></path><path fill-rule="evenodd" clip-rule="evenodd" d="M20 2H11V10.8787L15.0385 14.9172L20 10.3102V2ZM20 14.4041L14.9614 19.0828L11 15.1213V33H20V14.4041Z" fill="white"></path><path fill-rule="evenodd" clip-rule="evenodd" d="M10 2H0V14.8787L7.49999 7.37869L10 9.8787V2ZM10 14.1213L7.49999 11.6213L0 19.1213V33H10V14.1213Z" fill="white"></path><path d="M48.992 16L46.004 10.87H44.024V16H42.386V3.454H46.436C47.384 3.454 48.182 3.616 48.83 3.94C49.49 4.264 49.982 4.702 50.306 5.254C50.63 5.806 50.792 6.436 50.792 7.144C50.792 8.008 50.54 8.77 50.036 9.43C49.544 10.09 48.8 10.528 47.804 10.744L50.954 16H48.992ZM44.024 9.556H46.436C47.324 9.556 47.99 9.34 48.434 8.908C48.878 8.464 49.1 7.876 49.1 7.144C49.1 6.4 48.878 5.824 48.434 5.416C48.002 5.008 47.336 4.804 46.436 4.804H44.024V9.556ZM62.3372 10.69C62.3372 11.002 62.3192 11.332 62.2832 11.68H54.3992C54.4592 12.652 54.7892 13.414 55.3892 13.966C56.0012 14.506 56.7392 14.776 57.6032 14.776C58.3112 14.776 58.8992 14.614 59.3672 14.29C59.8472 13.954 60.1832 13.51 60.3752 12.958H62.1392C61.8752 13.906 61.3472 14.68 60.5552 15.28C59.7632 15.868 58.7792 16.162 57.6032 16.162C56.6672 16.162 55.8272 15.952 55.0832 15.532C54.3512 15.112 53.7752 14.518 53.3552 13.75C52.9352 12.97 52.7252 12.07 52.7252 11.05C52.7252 10.03 52.9292 9.136 53.3372 8.368C53.7452 7.6 54.3152 7.012 55.0472 6.604C55.7912 6.184 56.6432 5.974 57.6032 5.974C58.5392 5.974 59.3672 6.178 60.0872 6.586C60.8072 6.994 61.3592 7.558 61.7432 8.278C62.1392 8.986 62.3372 9.79 62.3372 10.69ZM60.6452 10.348C60.6452 9.724 60.5072 9.19 60.2312 8.746C59.9552 8.29 59.5772 7.948 59.0972 7.72C58.6292 7.48 58.1072 7.36 57.5312 7.36C56.7032 7.36 55.9952 7.624 55.4072 8.152C54.8312 8.68 54.5012 9.412 54.4172 10.348H60.6452ZM68.5133 7.486H66.4433V16H64.8053V7.486H63.5273V6.136H64.8053V5.434C64.8053 4.33 65.0873 3.526 65.6513 3.022C66.2273 2.506 67.1453 2.248 68.4053 2.248V3.616C67.6853 3.616 67.1753 3.76 66.8753 4.048C66.5873 4.324 66.4433 4.786 66.4433 5.434V6.136H68.5133V7.486ZM70.9451 16.108C70.6331 16.108 70.3691 16 70.1531 15.784C69.9371 15.568 69.8291 15.304 69.8291 14.992C69.8291 14.68 69.9371 14.416 70.1531 14.2C70.3691 13.984 70.6331 13.876 70.9451 13.876C71.2451 13.876 71.4971 13.984 71.7011 14.2C71.9171 14.416 72.0251 14.68 72.0251 14.992C72.0251 15.304 71.9171 15.568 71.7011 15.784C71.4971 16 71.2451 16.108 70.9451 16.108Z" fill="white"></path><path d="M46.4 24.486H44.33V33H42.692V24.486H41.414V23.136H42.692V22.434C42.692 21.33 42.974 20.526 43.538 20.022C44.114 19.506 45.032 19.248 46.292 19.248V20.616C45.572 20.616 45.062 20.76 44.762 21.048C44.474 21.324 44.33 21.786 44.33 22.434V23.136H46.4V24.486ZM49.1558 21.534C48.8438 21.534 48.5798 21.426 48.3638 21.21C48.1478 20.994 48.0398 20.73 48.0398 20.418C48.0398 20.106 48.1478 19.842 48.3638 19.626C48.5798 19.41 48.8438 19.302 49.1558 19.302C49.4558 19.302 49.7078 19.41 49.9118 19.626C50.1278 19.842 50.2358 20.106 50.2358 20.418C50.2358 20.73 50.1278 20.994 49.9118 21.21C49.7078 21.426 49.4558 21.534 49.1558 21.534ZM49.9478 23.136V33H48.3098V23.136H49.9478ZM57.5455 22.956C58.7455 22.956 59.7175 23.322 60.4615 24.054C61.2055 24.774 61.5775 25.818 61.5775 27.186V33H59.9575V27.42C59.9575 26.436 59.7115 25.686 59.2195 25.17C58.7275 24.642 58.0555 24.378 57.2035 24.378C56.3395 24.378 55.6495 24.648 55.1335 25.188C54.6295 25.728 54.3775 26.514 54.3775 27.546V33H52.7395V23.136H54.3775V24.54C54.7015 24.036 55.1395 23.646 55.6915 23.37C56.2555 23.094 56.8735 22.956 57.5455 22.956ZM63.6412 28.032C63.6412 27.024 63.8452 26.142 64.2532 25.386C64.6612 24.618 65.2192 24.024 65.9272 23.604C66.6472 23.184 67.4452 22.974 68.3212 22.974C69.1852 22.974 69.9352 23.16 70.5712 23.532C71.2072 23.904 71.6812 24.372 71.9932 24.936V23.136H73.6492V33H71.9932V31.164C71.6692 31.74 71.1832 32.22 70.5352 32.604C69.8992 32.976 69.1552 33.162 68.3032 33.162C67.4272 33.162 66.6352 32.946 65.9272 32.514C65.2192 32.082 64.6612 31.476 64.2532 30.696C63.8452 29.916 63.6412 29.028 63.6412 28.032ZM71.9932 28.05C71.9932 27.306 71.8432 26.658 71.5432 26.106C71.2432 25.554 70.8352 25.134 70.3192 24.846C69.8152 24.546 69.2572 24.396 68.6452 24.396C68.0332 24.396 67.4752 24.54 66.9712 24.828C66.4672 25.116 66.0652 25.536 65.7652 26.088C65.4652 26.64 65.3152 27.288 65.3152 28.032C65.3152 28.788 65.4652 29.448 65.7652 30.012C66.0652 30.564 66.4672 30.99 66.9712 31.29C67.4752 31.578 68.0332 31.722 68.6452 31.722C69.2572 31.722 69.8152 31.578 70.3192 31.29C70.8352 30.99 71.2432 30.564 71.5432 30.012C71.8432 29.448 71.9932 28.794 71.9932 28.05ZM81.2233 22.956C82.4233 22.956 83.3953 23.322 84.1393 24.054C84.8833 24.774 85.2553 25.818 85.2553 27.186V33H83.6353V27.42C83.6353 26.436 83.3893 25.686 82.8973 25.17C82.4053 24.642 81.7333 24.378 80.8813 24.378C80.0173 24.378 79.3273 24.648 78.8113 25.188C78.3073 25.728 78.0553 26.514 78.0553 27.546V33H76.4173V23.136H78.0553V24.54C78.3793 24.036 78.8173 23.646 79.3693 23.37C79.9333 23.094 80.5513 22.956 81.2233 22.956ZM87.3189 28.05C87.3189 27.03 87.5229 26.142 87.9309 25.386C88.3389 24.618 88.9029 24.024 89.6229 23.604C90.3549 23.184 91.1889 22.974 92.1249 22.974C93.3369 22.974 94.3329 23.268 95.1129 23.856C95.9049 24.444 96.4269 25.26 96.6789 26.304H94.9149C94.7469 25.704 94.4169 25.23 93.9249 24.882C93.4449 24.534 92.8449 24.36 92.1249 24.36C91.1889 24.36 90.4329 24.684 89.8569 25.332C89.2809 25.968 88.9929 26.874 88.9929 28.05C88.9929 29.238 89.2809 30.156 89.8569 30.804C90.4329 31.452 91.1889 31.776 92.1249 31.776C92.8449 31.776 93.4449 31.608 93.9249 31.272C94.4049 30.936 94.7349 30.456 94.9149 29.832H96.6789C96.4149 30.84 95.8869 31.65 95.0949 32.262C94.3029 32.862 93.3129 33.162 92.1249 33.162C91.1889 33.162 90.3549 32.952 89.6229 32.532C88.9029 32.112 88.3389 31.518 87.9309 30.75C87.5229 29.982 87.3189 29.082 87.3189 28.05ZM107.865 27.69C107.865 28.002 107.847 28.332 107.811 28.68H99.9265C99.9865 29.652 100.317 30.414 100.917 30.966C101.529 31.506 102.267 31.776 103.131 31.776C103.839 31.776 104.427 31.614 104.895 31.29C105.375 30.954 105.711 30.51 105.903 29.958H107.667C107.403 30.906 106.875 31.68 106.083 32.28C105.291 32.868 104.307 33.162 103.131 33.162C102.195 33.162 101.355 32.952 100.611 32.532C99.8785 32.112 99.3025 31.518 98.8825 30.75C98.4625 29.97 98.2525 29.07 98.2525 28.05C98.2525 27.03 98.4565 26.136 98.8645 25.368C99.2725 24.6 99.8425 24.012 100.575 23.604C101.319 23.184 102.171 22.974 103.131 22.974C104.067 22.974 104.895 23.178 105.615 23.586C106.335 23.994 106.887 24.558 107.271 25.278C107.667 25.986 107.865 26.79 107.865 27.69ZM106.173 27.348C106.173 26.724 106.035 26.19 105.759 25.746C105.483 25.29 105.105 24.948 104.625 24.72C104.157 24.48 103.635 24.36 103.059 24.36C102.231 24.36 101.523 24.624 100.935 25.152C100.359 25.68 100.029 26.412 99.9445 27.348H106.173Z" fill="#00C6A2"></path></svg>