<svg xmlns="http://www.w3.org/2000/svg" viewBox="0 0 162.69 202.99"><g id="Layer_2" data-name="Layer 2"><path d="M139.11 77.65H125V23.58a23.66 23.66 0 1 0-9.52 18.9v35.17H61.23a23.59 23.59 0 0 0-23.58 23.59v54.58H23.58a23.59 23.59 0 1 0 23.57 23.8v-14.28h35.4a23.56 23.56 0 1 0 18.9-9.52H47.16v-35.69a23.55 23.55 0 0 0 33-33h35.39v14.29a23.58 23.58 0 1 0 23.57-23.81Zm-37.65-40a14.07 14.07 0 1 1 14.06-14.07 14.08 14.08 0 0 1-14.06 14.07Zm14.06 141.75a14.07 14.07 0 1 1-14.06-14.06 14.08 14.08 0 0 1 14.06 14.06Zm-91.94 14.07a14.07 14.07 0 1 1 14.07-14.07 14.09 14.09 0 0 1-14.07 14.07Zm37.65-78.17a14.07 14.07 0 1 1 14.07-14.06 14.08 14.08 0 0 1-14.07 14.06Zm77.88 0a14.07 14.07 0 1 1 14.07-14.06 14.08 14.08 0 0 1-14.07 14.06Z" style="fill:#ff2424" id="Layer_1-2" data-name="Layer 1"/></g></svg>