<svg xmlns="http://www.w3.org/2000/svg" viewBox="0 0 694.65 182.6"><defs><style>.cls-1{fill:#fff}</style></defs><g id="Layer_2" data-name="Layer 2"><g id="Layer_1-2" data-name="Layer 1"><path class="cls-1" d="M279.58 42.49v97.41H268V58.64l-22.79 81.26h-28.55l-22.82-81.26v81.26h-11.55V42.49h18.09l24.91 86.83h11.29l24.91-86.83ZM299.34 42.49h11.13V55.3h-11.13Zm0 27.69h11.13v69.72h-11.13ZM380.32 89.39v50.51h-11.13v-47c0-8.49-3.9-14.75-13.08-14.75S340 84.38 340 95v45h-11.17V70.18H340v8.63a22.87 22.87 0 0 1 19.72-10.71c11 0 20.6 7.23 20.6 21.29ZM402 119.86V80.2h-9.18v-10h9.32V52.79h11v17.39h15.46v10h-15.44v39.38c0 9.32 3.89 11.41 10.29 11.41h5.85v10h-6c-11.54.03-21.3-2.47-21.3-21.11ZM493.86 92.45v25.18c0 14.47-9.32 24.35-22.26 24.35-7.94 0-14.89-3.48-18.09-8.76v6.68h-11.13V42.49h11.13v34.37c3.2-5.28 10.15-8.76 18.09-8.76 12.94 0 22.26 9.9 22.26 24.35Zm-11.13.83c0-10.15-6.12-15.16-14.61-15.16s-14.61 5-14.61 15.16v23.52c0 10.15 6.12 15.16 14.61 15.16s14.61-5 14.61-15.16ZM560.93 70.18v69.72H549.8v-6.68c-3.2 5.28-10.16 8.76-18.09 8.76-12.94 0-22.27-9.88-22.27-24.35V92.45c0-14.47 9.33-24.35 22.27-24.35 7.93 0 14.89 3.48 18.09 8.76v-6.68ZM549.8 116.8V93.28c0-10.15-6.13-15.16-14.61-15.16s-14.61 5-14.61 15.16v23.52c0 10.15 6.12 15.16 14.61 15.16S549.8 127 549.8 116.8ZM577.21 117.63v-2.22h11.13v2.64c0 9.18 5.43 13.91 15.44 13.91 6.4 0 13.5-1.94 13.5-9.73 0-7.38-5.56-9.47-16.7-13-13.49-4.17-22.4-8.2-22.4-20.73 0-15.72 14.06-20.45 24.77-20.45 11.83 0 24.63 6 24.63 22v3.2h-11.13v-2.89c0-9.6-7.1-12.24-13.78-12.24-7.23 0-13.08 3.06-13.08 9.46 0 6.82 6.82 9 16 11.82 14.61 4.32 23.1 9.33 23.1 22.27 0 15.44-13.08 20.31-25.32 20.31-15.73.02-26.16-8.07-26.16-24.35ZM654.29 108.59v7.65c0 9.46 5.85 15.72 14.61 15.72 9.05 0 14.61-4.87 14.61-14.33h11.14c0 16.42-9.74 24.35-25.75 24.35-15.44 0-25.74-9.74-25.74-24.49v-24.9c0-14.75 10.3-24.49 25.74-24.49s25.75 9.74 25.75 24.49v16Zm0-14.75V100h29.22v-6.16c0-9.46-5.84-15.72-14.61-15.72s-14.61 6.26-14.61 15.72ZM125.14 69.86h-12.66V21.21a21.28 21.28 0 1 0-8.56 17v31.65H55.08a21.21 21.21 0 0 0-21.21 21.21v49.1H21.21a21.22 21.22 0 1 0 21.21 21.42v-12.86h31.85a21.19 21.19 0 1 0 17-8.56H42.43v-32.1a21.19 21.19 0 0 0 29.65-29.66h31.84v12.86a21.21 21.21 0 1 0 21.21-21.41Zm-33.87-36a12.66 12.66 0 1 1 12.65-12.66 12.68 12.68 0 0 1-12.65 12.67Zm12.65 127.52a12.66 12.66 0 1 1-12.65-12.66 12.66 12.66 0 0 1 12.65 12.67ZM21.21 174a12.66 12.66 0 1 1 12.66-12.65A12.66 12.66 0 0 1 21.21 174Zm33.87-70.31a12.66 12.66 0 1 1 12.66-12.62 12.67 12.67 0 0 1-12.66 12.66Zm70.06 0a12.66 12.66 0 1 1 12.65-12.66 12.68 12.68 0 0 1-12.65 12.7Z"/></g></g></svg>