<svg class="cursor-pointer hidden md:block" width="80" height="19" fill="none" xmlns="http://www.w3.org/2000/svg"><path d="m27.819 18.223-.32-1.14c-.097.082-.203.16-.318.233-1.046.71-2.5 1.066-4.363 1.066-1.764 0-3.17-.318-4.215-.956-1.046-.637-1.569-1.81-1.569-3.517 0-1.601.531-2.737 1.593-3.407 1.07-.67 2.73-1.005 4.976-1.005h3.615v-.44c0-.957-.253-1.639-.76-2.047-.506-.417-1.184-.625-2.034-.625-.768 0-1.422.184-1.96.551-.54.368-.875.952-1.006 1.753l-4.117-1.152c.245-1.332.972-2.329 2.181-2.99 1.217-.662 2.786-.993 4.706-.993 2.778 0 4.677.576 5.698 1.728 1.022 1.152 1.532 2.79 1.532 4.914v8.027h-3.64Zm-.601-4.326v-1.912h-2.733c-1.209 0-2.038.151-2.488.454-.44.302-.661.772-.661 1.409 0 .63.2 1.103.6 1.421.4.311 1.042.466 1.924.466.972 0 1.773-.184 2.402-.551.637-.368.956-.797.956-1.287ZM43.074 10.882c0-1.822-.208-3.01-.625-3.566-.408-.564-.98-.845-1.715-.845-.85 0-1.528.298-2.035.894a3.09 3.09 0 0 0-.735 1.691v9.167H33.75V3.689h4.031l.086 1.397c.041-.041.082-.078.123-.11 1.103-.94 2.549-1.41 4.338-1.41 1.936 0 3.247.597 3.934 1.79.686 1.184 1.03 3.026 1.03 5.526h-4.217ZM59.916 18.223l-.319-1.14c-.098.082-.204.16-.319.233-1.045.71-2.5 1.066-4.362 1.066-1.765 0-3.17-.318-4.216-.956-1.046-.637-1.569-1.81-1.569-3.517 0-1.601.531-2.737 1.593-3.407 1.07-.67 2.73-1.005 4.976-1.005h3.615v-.44c0-.957-.253-1.639-.76-2.047-.506-.417-1.184-.625-2.034-.625-.768 0-1.422.184-1.96.551-.54.368-.875.952-1.006 1.753l-4.117-1.152c.245-1.332.972-2.329 2.181-2.99 1.217-.662 2.786-.993 4.706-.993 2.778 0 4.677.576 5.698 1.728 1.022 1.152 1.532 2.79 1.532 4.914v8.027h-3.64Zm-.6-4.326v-1.912h-2.734c-1.209 0-2.038.151-2.487.454-.442.302-.662.772-.662 1.409 0 .63.2 1.103.6 1.421.4.311 1.042.466 1.924.466.973 0 1.773-.184 2.402-.551.637-.368.956-.797.956-1.287ZM72.99 18.346c-1.977 0-3.599-.295-4.865-.883-1.266-.596-2.087-1.58-2.463-2.953l3.7-1.348c.164.866.573 1.482 1.226 1.85.662.36 1.438.54 2.329.54.931 0 1.65-.127 2.157-.38.506-.254.76-.617.76-1.091 0-.597-.307-.985-.92-1.164-.604-.188-1.597-.384-2.978-.589-2.23-.294-3.815-.739-4.755-1.335-.94-.597-1.409-1.63-1.409-3.1 0-1.504.646-2.599 1.936-3.285 1.3-.686 3.015-1.03 5.147-1.03 2.067 0 3.652.295 4.755.883 1.111.58 1.835 1.523 2.17 2.83l-3.567 1.324c-.171-.784-.551-1.356-1.14-1.716-.58-.367-1.343-.551-2.291-.551-.899 0-1.601.139-2.108.417-.498.277-.748.637-.748 1.078 0 .572.323.936.969 1.09.653.156 1.638.328 2.953.515 2.14.278 3.701.723 4.681 1.336.98.605 1.471 1.626 1.471 3.064 0 1.626-.633 2.782-1.9 3.468-1.258.686-2.961 1.03-5.11 1.03Z" fill="#fff"/><path fill-rule="evenodd" clip-rule="evenodd" d="M2.451 18.382 0 0l10.355 1.838c.44.116.848.21 1.223.295 1.412.322 2.366.54 2.883 1.47.653 1.168.98 2.606.98 4.314 0 1.715-.327 3.157-.98 4.326-.654 1.168-2.022 1.752-4.106 1.752H5.87l.858 4.387H2.45ZM3.799 3.8l5.589.982c.237.062.457.112.66.157.761.173 1.277.29 1.555.786.353.624.53 1.392.53 2.304 0 .916-.177 1.686-.53 2.31-.352.624-1.091.937-2.215.937H6.835l-1.539-.123L3.8 3.799Z" fill="#fff"/></svg>