<svg xmlns="http://www.w3.org/2000/svg" xmlns:xlink="http://www.w3.org/1999/xlink" xmlns:lucid="lucid" width="998" height="1197"><g transform="translate(-542 -63.09999999999991)" lucid:page-tab-id="2OXV5J9G37~g"><path d="M562 107.1c0-13.25 10.75-24 24-24h412c13.25 0 24 10.75 24 24v1109c0 13.25-10.75 24-24 24H586c-13.25 0-24-10.75-24-24z" stroke="#282c33" stroke-width="4" fill-opacity="0"></path><path d="M757 99h72v24h-72z" stroke="#000" stroke-opacity="0" fill-opacity="0"></path><path d="M816.98 108h-47.96v2h47.96v-2zm-47.96 6h47.96v-2h-47.96v2z" stroke="#000" stroke-opacity="0"></path><path d="M985 99h24v24h-24V99z" stroke="#000" stroke-opacity="0" fill-opacity="0"></path><path d="M1001 108v10h-8v-10h8m-1.5-6h-5l-1 1H990v2h14v-2h-3.5l-1-1zm3.5 4h-12v12c0 1.1.9 2 2 2h8c1.1 0 2-.9 2-2v-12z" stroke="#000" stroke-opacity="0"></path><path d="M592.67 164c0-13.25 10.74-24 24-24H966c13.25 0 24 10.75 24 24v143.33c0 13.26-10.75 24-24 24H616.67c-13.26 0-24-10.74-24-24z" stroke="#282c33" stroke-width="4" fill-opacity="0"></path><use xlink:href="#a" transform="matrix(1,0,0,1,604.6666666666666,152) translate(169.8125 100.5703125)"></use><path d="M1060 107.1c0-13.25 10.75-24 24-24h412c13.25 0 24 10.75 24 24v1109c0 13.25-10.75 24-24 24h-412c-13.25 0-24-10.75-24-24z" stroke="#282c33" stroke-width="4" fill-opacity="0"></path><path d="M1255 99h72v24h-72z" stroke="#000" stroke-opacity="0" fill-opacity="0"></path><path d="M1314.98 108h-47.96v2h47.96v-2zm-47.96 6h47.96v-2h-47.96v2z" stroke="#000" stroke-opacity="0"></path><path d="M1483 99h24v24h-24V99z" stroke="#000" stroke-opacity="0" fill-opacity="0"></path><path d="M1499 108v10h-8v-10h8m-1.5-6h-5l-1 1h-3.5v2h14v-2h-3.5l-1-1zm3.5 4h-12v12c0 1.1.9 2 2 2h8c1.1 0 2-.9 2-2v-12z" stroke="#000" stroke-opacity="0"></path><path d="M1090.67 164c0-13.25 10.74-24 24-24H1464c13.25 0 24 10.75 24 24v143.33c0 13.26-10.75 24-24 24h-349.33c-13.26 0-24-10.74-24-24z" stroke="#282c33" stroke-width="4" fill-opacity="0"></path><use xlink:href="#b" transform="matrix(1,0,0,1,1102.6666666666665,151.99999999999997) translate(170.30078125 100.5703125)"></use><path d="M607.93 593.82l355.5-25.05 11.3 160.6-355.48 25.06z" stroke="#000" stroke-opacity="0" stroke-width="2" fill="#fff" fill-opacity="0"></path><use xlink:href="#c" transform="matrix(0.9975264685860296,-0.07029185209030235,0.07029185209030235,0.9975264685860296,613.2715381560286,598.457177928075) translate(28.259114583333314 72.3203125)"></use><use xlink:href="#d" transform="matrix(0.9975264685860296,-0.07029185209030235,0.07029185209030235,0.9975264685860296,613.2715381560286,598.457177928075) translate(82.23046874999999 72.3203125)"></use><use xlink:href="#e" transform="matrix(0.9975264685860296,-0.07029185209030235,0.07029185209030235,0.9975264685860296,613.2715381560286,598.457177928075) translate(168.72135416666666 72.3203125)"></use><use xlink:href="#f" transform="matrix(0.9975264685860296,-0.07029185209030235,0.07029185209030235,0.9975264685860296,613.2715381560286,598.457177928075) translate(213.87760416666666 72.3203125)"></use><use xlink:href="#g" transform="matrix(0.9975264685860296,-0.07029185209030235,0.07029185209030235,0.9975264685860296,613.2715381560286,598.457177928075) translate(30.05316840277783 119.484375)"></use><path d="M743.9 581.23l-.16-3.37-.04-5.82.18-5.36.38-4.96.55-4.62.7-4.33.85-4.07.96-3.85 1.08-3.66 1.2-3.5 1.28-3.33 1.4-3.2 1.52-3.1 1.62-3 1.73-2.92 1.86-2.85 1.98-2.77 2.13-2.73 2.3-2.68 2.45-2.65 2.64-2.62 2.83-2.6 3.1-2.6 3.34-2.57 3.67-2.58 4.02-2.6 4.43-2.6 4.92-2.6 5.5-2.65 6.23-2.66 7.08-2.7 8.17-2.7 9.55-2.75 11.38-2.74 13.9-2.74 17.62-2.7 23.7-2.64 36.66-2.5 186.3-6.88 24.6-2.73 18.38-2.82 14.6-2.88 12-2.9 10.13-2.9 8.68-2.88 7.56-2.86 6.64-2.85 5.9-2.82 5.3-2.8 4.78-2.8 4.34-2.8 3.96-2.8 3.63-2.8 3.34-2.8 3.1-2.83 2.87-2.86 2.7-2.9 2.48-2.93 2.34-2.98 2.18-3.06 2.04-3.12 1.9-3.2 1.8-3.3 1.66-3.42 1.55-3.55 1.43-3.7 1.32-3.86 1.2-4.07 1.06-4.28.93-4.54.77-4.82.6-5.17.44-5.54.1-2.67" stroke="#6f7681" stroke-width="6" fill="none"></path><path d="M747.04 584.02l-5.98.42-.16-3.14 6-.3z" stroke="#6f7681" stroke-width=".05" fill="#6f7681"></path><path d="M1298.26 356.95l-9.24-17.73-11.1 16.64M743.9 581.23l-.4-8.12-.07-10.63.36-10.35.77-10.22 1.23-10.3 1.73-10.66 2.35-11.45 3.28-13.13 5.22-17.63 22.38-69.06 3.48-13.94 2.54-12.34 1.9-11.63L790 360.4l.88-11.43.35-10.18" stroke="#6f7681" stroke-width="6" fill="none"></path><path d="M747.04 584.02l-5.98.42-.16-3.14 6-.3z" stroke="#6f7681" stroke-width=".05" fill="#6f7681"></path><path d="M800.88 356.7l-9.7-17.48-10.66 16.93" stroke="#6f7681" stroke-width="6" fill="none"></path><defs><path fill="#6f7681" d="M920-744c0 218 15 427 27 645 5 89-139 139-182 58-3-3-13-32-31-85-53-161-192-263-415-306-18 75-30 243-58 360-12 50-50 72-97 72-56 0-99-53-99-108 1-367 194-896 360-1117 69-92 141-140 222-140 182 0 273 207 273 621zM720-476v-400c-19-103-12-145-34-225-11-40-25-60-41-60-32 0-83 65-153 195-56 103-99 215-130 336 137 27 256 79 358 154" id="h"></path><use transform="matrix(0.032552083333333336,0,0,0.032552083333333336,0,0)" xlink:href="#h" id="a"></use><path fill="#6f7681" d="M104-254c0-80 75-479 73-483 4-23 17-167 40-434-41-20-62-51-62-94 0-67 48-100 145-100 431 0 647 127 647 380 0 161-86 280-258 359 120 81 180 177 180 290 0 173-116 256-272 302C523-12 452 0 384 0 197 0 104-85 104-254zm642-722c0-105-210-177-326-186-9 140-24 282-43 426 246-59 369-139 369-240zm-77 638c-27-89-136-153-326-193-27 162-48 229-34 323 82 18 157 3 237-24 75-26 116-61 123-106" id="i"></path><use transform="matrix(0.032552083333333336,0,0,0.032552083333333336,0,0)" xlink:href="#i" id="b"></use><use transform="matrix(0.032552083333333336,0,0,0.032552083333333336,0,0)" xlink:href="#h" id="c"></use><path fill="#6f7681" d="M922-654c-9 182 20 369 29 555 5 90-140 139-183 58-2-3-13-31-31-85-54-160-191-263-414-306-19 75-30 243-58 360-12 50-51 72-98 72-55 0-99-53-99-108 1-366 195-896 360-1117 69-92 141-140 222-140 182 0 273 207 273 621 0 19 1 49-1 90zM724-476v-400c-20-103-13-145-35-225-11-40-25-60-40-60-32 0-83 65-154 195-56 103-99 215-130 336 137 27 256 79 359 154" id="j"></path><path fill="#6f7681" d="M829-1263c0-55 42-106 96-102 141 10 133 224 150 372 25 219 36 341 36 365 0 117-18 227-55 328C983-97 875 5 732 5 532 5 402-187 343-570c-16 123-24 243-24 360C319-70 282 0 207 0c-53 0-99-44-99-97 0-315 85-1025 186-1197 27-46 56-71 93-71 53 0 88 33 105 99 5 21 8 92 8 213 0 153 26 313 55 481 43 253 101 379 172 379 116 0 183-303 183-438 0-120-81-513-81-632" id="k"></path><path fill="#6f7681" d="M387-1365c369 0 678 217 678 573 0 172-83 346-249 522C647-90 478 0 307 0 194 0 137-80 137-239c0-257 30-558 68-915-53-11-80-43-80-95 0-56 32-93 97-108 26-6 81-8 165-8zm21 204c-15 76-47 491-72 917 0 13 1 27 2 41 116-22 231-92 346-210 120-123 180-241 180-355-1-196-67-277-209-343-74-35-157-50-247-50" id="l"></path><g id="d"><use transform="matrix(0.01953125,0,0,0.01953125,0,0)" xlink:href="#j"></use><use transform="matrix(0.01953125,0,0,0.01953125,20.859375,0)" xlink:href="#k"></use><use transform="matrix(0.01953125,0,0,0.01953125,44.765625,0)" xlink:href="#l"></use></g><use transform="matrix(0.032552083333333336,0,0,0.032552083333333336,0,0)" xlink:href="#i" id="e"></use><path fill="#6f7681" d="M196-1063c0-251 371-378 608-255 71 37 119 87 150 151 35 73-14 152-87 150-26 0-63-25-111-73s-102-72-162-72c-72 0-200 37-200 99 0 43 47 111 142 203 145 142 234 232 266 271 95 116 142 225 142 328C944-95 791 0 613 0 494 0 170-60 118-111c-29-29-48-55-48-87-1-69 67-120 140-92h-2c162 59 305 89 429 89 69 0 104-25 104-75 0-69-47-151-142-245-86-86-177-167-261-254-98-100-142-199-142-288" id="m"></path><path fill="#6f7681" d="M46-1227c0-128 188-119 328-120 79-1 391-35 488-35 99 0 148 35 148 105 0 65-48 98-145 98-76 0-153 3-232 8 1 179-14 796-13 976C622-79 604-4 510 0c-53 2-99-44-99-97v-270c21-312 24-505 22-785-143 13-240 20-291 20-64 0-96-32-96-95" id="n"></path><path fill="#6f7681" d="M432-1365c342 0 623 232 623 568 0 219-132 374-395 466 145 90 217 167 217 230 0 52-52 98-104 96-17 0-39-10-66-29-90-65-203-166-304-203v78C403-53 368 0 299 0c-53 0-99-44-99-97v-374c17-145 25-361 25-650-2 5-10 7-24 7-53 2-99-46-99-99 0-112 194-152 330-152zm257 786c221-128 209-317 21-469-89-71-178-111-268-119-1 97-2 329-2 698 90-27 172-66 249-110" id="o"></path><g id="f"><use transform="matrix(0.01953125,0,0,0.01953125,0,0)" xlink:href="#m"></use><use transform="matrix(0.01953125,0,0,0.01953125,20.8984375,0)" xlink:href="#n"></use><use transform="matrix(0.01953125,0,0,0.01953125,41.5625,0)" xlink:href="#j"></use><use transform="matrix(0.01953125,0,0,0.01953125,62.421875,0)" xlink:href="#o"></use><use transform="matrix(0.01953125,0,0,0.01953125,84.19921875,0)" xlink:href="#n"></use></g><path fill="#6f7681" d="M270-1365c53 0 101 46 100 99-5 357-80 777-80 1073C290-64 254 0 183 0 132 0 82-50 82-101c0-298 47-662 55-976 2-76 19-138 34-189 19-66 52-99 99-99" id="p"></path><path fill="#6f7681" d="M188 0C127 1 82-61 96-128c102-498 136-682 239-1056 16-58 29-97 39-118 39-81 152-87 186 3 8 21 18 60 27 118 29 181 79 412 149 693 44-195 133-594 228-824 15-37 48-53 86-53 50 0 89 31 100 97 19 117 18 225 53 381 45 201 158 605 162 785 1 54-41 102-95 102-46 0-83-20-96-65-38-130-44-258-87-432-40-161-61-264-70-309-35 138-86 345-147 622-13 58-23 96-30 117-29 83-132 87-176 19-11-18-25-49-39-97-63-219-122-453-173-703-35 145-85 365-140 660-11 60-19 101-29 123-20 43-51 65-95 65" id="q"></path><path fill="#6f7681" d="M807-1260c0-54 40-105 96-105 43 0 76 24 99 73 18 39 27 131 27 277 0 274-20 485-61 631C895-128 757 0 555 0 385 0 262-90 189-270c-51-126-76-289-76-488 0-289 18-467 53-534 26-49 59-73 99-73 52 0 105 52 99 104-14 128-48 300-48 513 0 128 14 239 41 332 41 144 108 216 201 216 105 0 179-98 225-293 29-124 45-265 45-422 0-66-21-279-21-345" id="r"></path><path fill="#6f7681" d="M759-451c68-46 151 19 151 87 0 27-17 54-48 86C767-182 491 0 329 0 186 0 114-109 114-326c0-169 46-507 46-695 0-139-8-341 120-344 53-2 103 46 101 99-4-2-27 472-40 636-16 198-27 312-27 343 0 57 11 86 32 86 61 0 169-62 325-185 19-16 49-38 88-65" id="s"></path><path fill="#6f7681" d="M369 0C201 0 119-119 119-294c0-119 26-272 77-457 80-290 99-377 125-524 7-13 27-26 60-41 71-33 211-49 419-49 129 0 193 36 193 107 0 50-48 105-99 101-142-10-258-9-397 20-11 59-34 158-69 297 146-57 246-85 301-85 53 0 100 43 100 96 0 43-23 80-73 99-127 49-178 54-389 129-29 119-44 224-44 314 0 58 10 87 30 87 66 0 151-30 256-90s173-91 205-91c50 0 101 49 101 99 0 30-19 57-51 87C794-129 500 0 369 0" id="t"></path><path fill="#6f7681" d="M609-1364c323 0 519 229 519 557 0 183-51 357-152 522C860-95 716 0 544 0 271 0 97-283 97-570c0-191 38-362 113-512 95-188 228-282 399-282zm319 550c0-231-116-347-349-347-81 0-151 81-210 243-48 132-72 248-72 348 0 161 47 272 142 333 35 23 69 34 100 34 113 0 208-76 287-229 68-131 102-258 102-382" id="u"></path><path fill="#6f7681" d="M534 0c-54 1-104-40-104-96 0-45 18-79 58-93 38-13 78-19 114-33 139-52 207-229 207-522-71 158-178 237-321 237-171 0-289-87-355-261-43-114-65-273-65-478 0-79 34-119 101-119 58 0 96 44 106 134 10 91 12 183 22 275 13 113 52 188 113 226 57 35 92 27 153-4 115-60 203-251 231-413 5-26 9-65 25-113s51-71 94-71c48 0 84 32 102 97 48 177 15 638-17 760-49 186-136 325-271 414C667-20 603 0 534 0" id="v"></path><g id="g"><use transform="matrix(0.019314236111111105,0,0,0.019314236111111105,0,0)" xlink:href="#m"></use><use transform="matrix(0.019314236111111105,0,0,0.019314236111111105,20.666232638888882,0)" xlink:href="#p"></use><use transform="matrix(0.019314236111111105,0,0,0.019314236111111105,29.261067708333318,0)" xlink:href="#q"></use><use transform="matrix(0.019314236111111105,0,0,0.019314236111111105,56.513454861111086,0)" xlink:href="#r"></use><use transform="matrix(0.019314236111111105,0,0,0.019314236111111105,78.53168402777774,0)" xlink:href="#s"></use><use transform="matrix(0.019314236111111105,0,0,0.019314236111111105,96.2235243055555,0)" xlink:href="#n"></use><use transform="matrix(0.019314236111111105,0,0,0.019314236111111105,116.65798611111106,0)" xlink:href="#j"></use><use transform="matrix(0.019314236111111105,0,0,0.019314236111111105,137.28559027777771,0)" xlink:href="#k"></use><use transform="matrix(0.019314236111111105,0,0,0.019314236111111105,160.92621527777771,0)" xlink:href="#t"></use><use transform="matrix(0.019314236111111105,0,0,0.019314236111111105,182.4229600694444,0)" xlink:href="#u"></use><use transform="matrix(0.019314236111111105,0,0,0.019314236111111105,205.9863281249999,0)" xlink:href="#r"></use><use transform="matrix(0.019314236111111105,0,0,0.019314236111111105,228.00455729166657,0)" xlink:href="#m"></use><use transform="matrix(0.019314236111111105,0,0,0.019314236111111105,248.67078993055543,0)" xlink:href="#s"></use><use transform="matrix(0.019314236111111105,0,0,0.019314236111111105,264.7788628472221,0)" xlink:href="#v"></use></g></defs></g></svg>