<svg xmlns="http://www.w3.org/2000/svg" width="30" height="30"><path style="stroke:none;fill-rule:nonzero;fill:#b4ccca;fill-opacity:1" d="M28 6.938c-.957.425-1.984.71-3.063.84a5.35 5.35 0 0 0 2.344-2.954 10.62 10.62 0 0 1-3.386 1.297A5.332 5.332 0 0 0 20 4.437a5.335 5.335 0 0 0-5.195 6.547A15.14 15.14 0 0 1 3.809 5.41a5.33 5.33 0 0 0-.72 2.684c0 1.851.938 3.484 2.372 4.437a5.323 5.323 0 0 1-2.418-.664v.067a5.336 5.336 0 0 0 4.281 5.23 5.302 5.302 0 0 1-2.41.09 5.34 5.34 0 0 0 4.984 3.707 10.711 10.711 0 0 1-6.625 2.281c-.43 0-.855-.023-1.273-.074a15.076 15.076 0 0 0 8.176 2.398c9.812 0 15.176-8.128 15.176-15.18 0-.23-.004-.46-.016-.687A10.853 10.853 0 0 0 28 6.938Zm0 0" id="surface109792"/></svg>