<svg xmlns="http://www.w3.org/2000/svg" viewBox="0 0 162.69 202.99"><defs><style>.cls-1{fill:#ff2424;}</style></defs><g id="Layer_2" data-name="Layer 2"><g id="Layer_1-2" data-name="Layer 1"><path class="cls-1" d="M139.11,77.65H125V23.58a23.66,23.66,0,1,0-9.52,18.9V77.65H61.23a23.59,23.59,0,0,0-23.58,23.59c0,.17,0,.34,0,.51h0v54.07H23.58a23.59,23.59,0,1,0,23.57,23.8h0V165.34h35.4a23.56,23.56,0,1,0,18.9-9.52H47.16V120.13a23.55,23.55,0,0,0,33-33h35.39v14.29h0a23.58,23.58,0,1,0,23.57-23.81Zm-37.65-40a14.07,14.07,0,1,1,14.06-14.07A14.08,14.08,0,0,1,101.46,37.65ZM115.52,179.4a14.07,14.07,0,1,1-14.06-14.06A14.08,14.08,0,0,1,115.52,179.4ZM23.58,193.47A14.07,14.07,0,1,1,37.65,179.4,14.09,14.09,0,0,1,23.58,193.47ZM61.23,115.3A14.07,14.07,0,1,1,75.3,101.24,14.08,14.08,0,0,1,61.23,115.3Zm77.88,0a14.07,14.07,0,1,1,14.07-14.06A14.08,14.08,0,0,1,139.11,115.3Z"/></g></g></svg>