<svg width="156" height="67" viewBox="0 0 156 67" fill="none" xmlns="http://www.w3.org/2000/svg">
<path d="M33.243 39.7208L36.8876 36.0761L40.5322 39.7208L44.1769 36.0761L47.8215 39.7208L51.4661 36.0761L44.1769 28.7869L40.5322 32.4315L36.8876 28.7869L29.5983 36.0761L33.243 39.7208Z" fill="white"/>
<path d="M66.8018 28.9388H65.0706L61.2589 34.9524L57.4776 28.9388H55.8375V39.5689H57.4472V31.5507L60.6363 36.6988H61.8664L65.2225 31.5204V39.5689H66.8018V28.9388Z" fill="white"/>
<path d="M72.499 39.7815C74.5187 39.7815 75.3995 38.6426 75.8551 37.777L74.5491 37.1088C74.2302 37.8074 73.7139 38.4148 72.5294 38.4148C71.269 38.4148 70.3426 37.5796 70.2971 36.2584H76.0525V35.6661C76.0525 33.3882 74.5947 31.8696 72.4383 31.8696C70.2363 31.8696 68.7025 33.4034 68.7025 35.7421V35.9243C68.7025 38.2477 70.2211 39.7815 72.499 39.7815ZM70.3122 35.0587C70.4641 33.9349 71.2386 33.2516 72.4231 33.2516C73.5924 33.2516 74.3821 33.9349 74.4732 35.0587H70.3122Z" fill="white"/>
<path d="M78.9896 39.5689H82.8468V38.2477H80.5538V33.4034H82.8468V32.0822H80.5538V29.6069H78.9896V32.0822H76.9243V33.4034H78.9896V39.5689Z" fill="white"/>
<path d="M87.0658 39.7815C88.6148 39.7815 89.1615 38.9919 89.3892 38.5059H89.6322V39.5689H91.986V38.2629H90.923V34.7246C90.923 32.9023 89.7385 31.8696 87.7947 31.8696C85.8813 31.8696 84.8942 32.8871 84.5297 34.0716L85.9876 34.5424C86.1698 33.7375 86.7013 33.1756 87.7795 33.1756C88.8729 33.1756 89.3892 33.7527 89.3892 34.6183V35.1043H87.1114C85.4713 35.1043 84.2564 35.8939 84.2564 37.4125C84.2564 38.9311 85.4713 39.7815 87.0658 39.7815ZM85.8205 37.367C85.8205 36.6836 86.3672 36.3191 87.2025 36.3191H89.3892V36.471C89.3892 37.7314 88.5388 38.4907 87.2936 38.4907C86.3672 38.4907 85.8205 38.0503 85.8205 37.367Z" fill="white"/>
<path d="M96.475 39.5631H98.1151V35.4781H100.697C102.595 35.4781 104.068 34.2784 104.068 32.3042V32.1068C104.068 30.1478 102.656 28.9329 100.697 28.9329H96.475V39.5631ZM98.1151 33.9898V30.4211H100.53C101.699 30.4211 102.428 31.059 102.428 32.1372V32.289C102.428 33.352 101.669 33.9898 100.53 33.9898H98.1151Z" fill="white"/>
<path d="M108.971 39.7757C111.219 39.7757 112.859 38.3178 112.859 35.9337V35.7059C112.859 33.3369 111.219 31.8638 108.971 31.8638C106.724 31.8638 105.099 33.3369 105.099 35.7059V35.9337C105.099 38.3178 106.724 39.7757 108.971 39.7757ZM106.663 35.8881V35.7514C106.663 34.2025 107.604 33.2609 108.971 33.2609C110.353 33.2609 111.295 34.2025 111.295 35.7514V35.8881C111.295 37.4522 110.338 38.3786 108.971 38.3786C107.604 38.3786 106.663 37.4522 106.663 35.8881Z" fill="white"/>
<path d="M118.314 39.7757C120.561 39.7757 122.202 38.3178 122.202 35.9337V35.7059C122.202 33.3369 120.561 31.8638 118.314 31.8638C116.066 31.8638 114.442 33.3369 114.442 35.7059V35.9337C114.442 38.3178 116.066 39.7757 118.314 39.7757ZM116.006 35.8881V35.7514C116.006 34.2025 116.947 33.2609 118.314 33.2609C119.696 33.2609 120.637 34.2025 120.637 35.7514V35.8881C120.637 37.4522 119.681 38.3786 118.314 38.3786C116.947 38.3786 116.006 37.4522 116.006 35.8881Z" fill="white"/>
<path d="M124.149 39.5631H125.713V28.9329H124.149V39.5631Z" fill="white"/>
</svg>
