<svg xmlns="http://www.w3.org/2000/svg" xmlns:xlink="http://www.w3.org/1999/xlink" xmlns:lucid="lucid" width="791.08" height="1197"><g transform="translate(-542 -63.09999999999991)" lucid:page-tab-id="2OXV5J9G37~g"><path d="M562 107.1c0-13.25 10.75-24 24-24h412c13.25 0 24 10.75 24 24v1109c0 13.25-10.75 24-24 24H586c-13.25 0-24-10.75-24-24z" stroke="#282c33" stroke-width="4" fill-opacity="0"/><path d="M757 99h72v24h-72z" stroke="#000" stroke-opacity="0" fill-opacity="0"/><path d="M816.98 108h-47.96v2h47.96v-2zm-47.96 6h47.96v-2h-47.96v2z" stroke="#000" stroke-opacity="0"/><path d="M985 99h24v24h-24V99z" stroke="#000" stroke-opacity="0" fill-opacity="0"/><path d="M1001 108v10h-8v-10h8m-1.5-6h-5l-1 1H990v2h14v-2h-3.5l-1-1zm3.5 4h-12v12c0 1.1.9 2 2 2h8c1.1 0 2-.9 2-2v-12z" stroke="#000" stroke-opacity="0"/><path d="M592.67 164c0-13.25 10.74-24 24-24H966c13.25 0 24 10.75 24 24v143.33c0 13.26-10.75 24-24 24H616.67c-13.26 0-24-10.74-24-24z" stroke="#282c33" stroke-width="4" fill-opacity="0"/><use xlink:href="#a" transform="matrix(1,0,0,1,604.6666666666666,152) translate(169.8125 100.5703125)"/><path d="M593.33 384c0-13.25 10.75-24 24-24h349.34c13.25 0 24 10.75 24 24v143.33c0 13.26-10.75 24-24 24H617.33c-13.25 0-24-10.74-24-24z" stroke="#282c33" stroke-width="4" fill-opacity="0"/><use xlink:href="#b" transform="matrix(1,0,0,1,605.3333333333334,372) translate(170.30078125 100.5703125)"/><path d="M997.45 235.94l1.58.16 2.2.33 2.13.4 2.08.5 2.04.56 2 .64 1.94.73 1.93.8 1.9.9 1.87.97 1.85 1.07 1.83 1.18 1.82 1.26 1.8 1.37 1.8 1.5 1.77 1.6 1.76 1.73 1.77 1.88 1.75 2.04 1.73 2.2 1.74 2.36 1.7 2.57 1.68 2.78 1.65 3 1.6 3.24 1.56 3.48 1.5 3.77 1.4 4.06 1.32 4.36 1.2 4.65 1.04 4.97.88 5.25.7 5.53.48 5.8.25 6v6.2l-.25 6.33-.54 6.42-.8 6.45-1.1 6.43-1.35 6.36-1.6 6.24-1.84 6.1-2.04 5.9-2.26 5.7-2.43 5.46-2.6 5.23-2.75 5-2.88 4.76-3 4.52-3.12 4.28-3.2 4.06-3.32 3.83-3.4 3.62-3.5 3.43-3.6 3.23-3.66 3.04-3.77 2.86-3.86 2.68-3.95 2.52-4.06 2.34-4.2 2.2-4.3 2-4.42 1.87-4.58 1.7-4.73 1.55-4.9 1.37-5.1 1.2-5.3 1-5.55.82-4.73.5" stroke="#6f7681" stroke-width="6" fill="none"/><path d="M1016.28 228.73l-18.44 7.74 15.67 12.43M941.07 456.76L938 457" stroke="#6f7681" stroke-width="6" fill="none"/><path d="M1074 260l239.08 21-14 159.38-239.08-21z" stroke="#000" stroke-opacity="0" stroke-width="2" fill="#fff" fill-opacity="0"/><use xlink:href="#c" transform="matrix(0.9961655088791523,0.0874887359580614,-0.0874887359580614,0.9961655088791523,1078.5415816178954,265.4182712241861) translate(6.15234375 53.32031250000001)"/><use xlink:href="#d" transform="matrix(0.9961655088791523,0.0874887359580614,-0.0874887359580614,0.9961655088791523,1078.5415816178954,265.4182712241861) translate(51.30859375 53.32031250000001)"/><use xlink:href="#e" transform="matrix(0.9961655088791523,0.0874887359580614,-0.0874887359580614,0.9961655088791523,1078.5415816178954,265.4182712241861) translate(160.44921875 53.32031250000001)"/><use xlink:href="#f" transform="matrix(0.9961655088791523,0.0874887359580614,-0.0874887359580614,0.9961655088791523,1078.5415816178954,265.4182712241861) translate(12.861328125 122.16796875000003)"/><use xlink:href="#g" transform="matrix(0.9961655088791523,0.0874887359580614,-0.0874887359580614,0.9961655088791523,1078.5415816178954,265.4182712241861) translate(58.994140625 122.16796875000003)"/><use xlink:href="#h" transform="matrix(0.9961655088791523,0.0874887359580614,-0.0874887359580614,0.9961655088791523,1078.5415816178954,265.4182712241861) translate(115.244140625 122.16796875000003)"/><defs><path fill="#6f7681" d="M920-744c0 218 15 427 27 645 5 89-139 139-182 58-3-3-13-32-31-85-53-161-192-263-415-306-18 75-30 243-58 360-12 50-50 72-97 72-56 0-99-53-99-108 1-367 194-896 360-1117 69-92 141-140 222-140 182 0 273 207 273 621zM720-476v-400c-19-103-12-145-34-225-11-40-25-60-41-60-32 0-83 65-153 195-56 103-99 215-130 336 137 27 256 79 358 154" id="i"/><use transform="matrix(0.032552083333333336,0,0,0.032552083333333336,0,0)" xlink:href="#i" id="a"/><path fill="#6f7681" d="M104-254c0-80 75-479 73-483 4-23 17-167 40-434-41-20-62-51-62-94 0-67 48-100 145-100 431 0 647 127 647 380 0 161-86 280-258 359 120 81 180 177 180 290 0 173-116 256-272 302C523-12 452 0 384 0 197 0 104-85 104-254zm642-722c0-105-210-177-326-186-9 140-24 282-43 426 246-59 369-139 369-240zm-77 638c-27-89-136-153-326-193-27 162-48 229-34 323 82 18 157 3 237-24 75-26 116-61 123-106" id="j"/><use transform="matrix(0.032552083333333336,0,0,0.032552083333333336,0,0)" xlink:href="#j" id="b"/><use transform="matrix(0.032552083333333336,0,0,0.032552083333333336,0,0)" xlink:href="#j" id="c"/><path fill="#6f7681" d="M1319-1365c51 0 104 50 101 100-10 151-188 568-251 746-42 119-107 332-145 435-41 112-162 111-205 2-9-23-20-69-34-138-17-86-44-213-77-384-29 121-72 278-128 471-24 85-42 143-123 143-41 0-71-22-90-66-8-19-18-59-29-120-39-219-218-896-246-1087-8-52 44-102 97-102 45 0 77 25 99 73 7 15 12 53 23 113 33 173 101 434 160 701 72-277 121-491 147-642 10-57 21-94 27-114 29-93 161-81 184 7 6 22 11 66 11 133 0 150 43 362 100 635l239-724c8-25 20-62 43-109 25-50 60-73 97-73" id="k"/><path fill="#6f7681" d="M922-654c-9 182 20 369 29 555 5 90-140 139-183 58-2-3-13-31-31-85-54-160-191-263-414-306-19 75-30 243-58 360-12 50-51 72-98 72-55 0-99-53-99-108 1-366 195-896 360-1117 69-92 141-140 222-140 182 0 273 207 273 621 0 19 1 49-1 90zM724-476v-400c-20-103-13-145-35-225-11-40-25-60-40-60-32 0-83 65-154 195-56 103-99 215-130 336 137 27 256 79 359 154" id="l"/><path fill="#6f7681" d="M270-1365c53 0 101 46 100 99-5 357-80 777-80 1073C290-64 254 0 183 0 132 0 82-50 82-101c0-298 47-662 55-976 2-76 19-138 34-189 19-66 52-99 99-99" id="m"/><path fill="#6f7681" d="M46-1227c0-128 188-119 328-120 79-1 391-35 488-35 99 0 148 35 148 105 0 65-48 98-145 98-76 0-153 3-232 8 1 179-14 796-13 976C622-79 604-4 510 0c-53 2-99-44-99-97v-270c21-312 24-505 22-785-143 13-240 20-291 20-64 0-96-32-96-95" id="n"/><path fill="#6f7681" d="M196-1063c0-251 371-378 608-255 71 37 119 87 150 151 35 73-14 152-87 150-26 0-63-25-111-73s-102-72-162-72c-72 0-200 37-200 99 0 43 47 111 142 203 145 142 234 232 266 271 95 116 142 225 142 328C944-95 791 0 613 0 494 0 170-60 118-111c-29-29-48-55-48-87-1-69 67-120 140-92h-2c162 59 305 89 429 89 69 0 104-25 104-75 0-69-47-151-142-245-86-86-177-167-261-254-98-100-142-199-142-288" id="o"/><g id="d"><use transform="matrix(0.01953125,0,0,0.01953125,0,0)" xlink:href="#k"/><use transform="matrix(0.01953125,0,0,0.01953125,26.26953125,0)" xlink:href="#l"/><use transform="matrix(0.01953125,0,0,0.01953125,47.12890625,0)" xlink:href="#m"/><use transform="matrix(0.01953125,0,0,0.01953125,55.8203125,0)" xlink:href="#n"/><use transform="matrix(0.01953125,0,0,0.01953125,76.484375,0)" xlink:href="#o"/></g><path fill="#6f7681" d="M108-101c0-144 39-657 39-763 0-78 7-179 29-235 46-116 122-195 235-232 69-23 183-34 342-34 78 0 117 33 117 99 0 83-48 100-162 100-195-1-308 48-343 145-25 70-17 205-22 302 195-81 317-121 367-121 54 0 101 56 101 110 0 37-23 69-72 88-119 47-231 77-408 144-1 97 0 317-24 397C287-35 257 0 208 0c-50 0-100-50-100-101" id="p"/><path fill="#6f7681" d="M609-1364c323 0 519 229 519 557 0 183-51 357-152 522C860-95 716 0 544 0 271 0 97-283 97-570c0-191 38-362 113-512 95-188 228-282 399-282zm319 550c0-231-116-347-349-347-81 0-151 81-210 243-48 132-72 248-72 348 0 161 47 272 142 333 35 23 69 34 100 34 113 0 208-76 287-229 68-131 102-258 102-382" id="q"/><path fill="#6f7681" d="M432-1365c342 0 623 232 623 568 0 219-132 374-395 466 145 90 217 167 217 230 0 52-52 98-104 96-17 0-39-10-66-29-90-65-203-166-304-203v78C403-53 368 0 299 0c-53 0-99-44-99-97v-374c17-145 25-361 25-650-2 5-10 7-24 7-53 2-99-46-99-99 0-112 194-152 330-152zm257 786c221-128 209-317 21-469-89-71-178-111-268-119-1 97-2 329-2 698 90-27 172-66 249-110" id="r"/><g id="e"><use transform="matrix(0.01953125,0,0,0.01953125,0,0)" xlink:href="#p"/><use transform="matrix(0.01953125,0,0,0.01953125,17.40234375,0)" xlink:href="#q"/><use transform="matrix(0.01953125,0,0,0.01953125,41.23046875,0)" xlink:href="#r"/></g><use transform="matrix(0.032552083333333336,0,0,0.032552083333333336,0,0)" xlink:href="#i" id="f"/><g id="g"><use transform="matrix(0.01953125,0,0,0.01953125,0,0)" xlink:href="#n"/><use transform="matrix(0.01953125,0,0,0.01953125,20.6640625,0)" xlink:href="#q"/></g><path fill="#6f7681" d="M829-1263c0-55 42-106 96-102 141 10 133 224 150 372 25 219 36 341 36 365 0 117-18 227-55 328C983-97 875 5 732 5 532 5 402-187 343-570c-16 123-24 243-24 360C319-70 282 0 207 0c-53 0-99-44-99-97 0-315 85-1025 186-1197 27-46 56-71 93-71 53 0 88 33 105 99 5 21 8 92 8 213 0 153 26 313 55 481 43 253 101 379 172 379 116 0 183-303 183-438 0-120-81-513-81-632" id="s"/><path fill="#6f7681" d="M925-1365c50 0 101 48 101 99 0 165-53 833-94 1164C923-33 882 0 831 0c-53 0-101-49-101-102 0-145 29-345 45-490-111 9-252 35-425 78-6 58-9 145-9 260 0 35-10 86-22 153C307-33 270 0 220 0c-53 0-103-48-102-101 6-372 65-764 56-1090-3-108 18-171 108-174 55-2 99 41 99 97v544c167-44 304-66 413-66 7-75 10-182 10-321 8-35 11-88 22-155s48-99 99-99" id="t"/><g id="h"><use transform="matrix(0.01953125,0,0,0.01953125,0,0)" xlink:href="#p"/><use transform="matrix(0.01953125,0,0,0.01953125,17.40234375,0)" xlink:href="#m"/><use transform="matrix(0.01953125,0,0,0.01953125,26.09375,0)" xlink:href="#s"/><use transform="matrix(0.01953125,0,0,0.01953125,50,0)" xlink:href="#m"/><use transform="matrix(0.01953125,0,0,0.01953125,58.69140625,0)" xlink:href="#o"/><use transform="matrix(0.01953125,0,0,0.01953125,79.58984375,0)" xlink:href="#t"/></g></defs></g></svg>